<?xml version="1.0" encoding="UTF-8"?>
<svg id="Layer_1" data-name="Layer 1" xmlns="http://www.w3.org/2000/svg" viewBox="0 0 755.85 616.57">
  <defs>
    <style>
      .cls-1 {
        fill: #a77075;
      }
    </style>
  </defs>
  <path class="cls-1" d="m714.77,122.68c-10.18,9.52-20.92,18.28-31.66,27.23-3.02,2.54-4.43,5.09-4.24,9.23,1.79,44.94-3.96,89.13-16.02,132.38-10.08,36.28-23.75,71.33-43.34,103.55-13.47,22.24-27.98,43.91-43.81,64.54-18.28,23.84-40.14,44.66-63.7,63.6-27.61,22.05-57.38,40.42-89.51,54.93-37.03,16.77-75.76,27.51-115.89,33.54-34.58,5.18-69.25,5.94-104.02,3.67-37.03-2.45-73.4-9.33-108.17-22.33-23.75-8.76-46.73-19.69-69.82-30.25-8.57-3.96-16.4-9.52-24.59-14.98,83.67,7.25,159.14-13.38,227.17-64.92-71.33-6.22-118.82-41.64-143.78-107.51,22.52,2.73,44.38,2.17,66.14-3.86-35.24-9.23-64.82-27.14-87.53-55.69-22.61-28.55-33.92-60.96-33.82-98.56,21.76,10.74,43.62,18.28,67.84,18.47C27.14,178.55,12.15,109.96,49.28,27.89c85.18,99.88,191.46,154.52,321.49,163.38-1.04-9.33-2.17-17.43-2.73-25.63-3.11-52.2,15.64-95.73,55.12-129.27C459.33,5.65,502.02-5.18,548.85,2.26c32.6,5.18,60.77,19.69,84.05,43.34,2.54,2.54,4.9,3.2,8.57,2.45,29.59-6.69,57.76-16.58,84.14-31.57,2.64-1.41,5.37-2.54,9.42-4.52-11.96,36.18-33.92,63.03-64.07,83.86,29.21-2.17,56.63-11.02,84.89-22.43-12.63,18.84-25.72,35.05-41.08,49.28"/>
</svg>