<?xml version="1.0" encoding="UTF-8"?>
<svg id="Layer_1" data-name="Layer 1" xmlns="http://www.w3.org/2000/svg" viewBox="0 0 1629.72 541.03">
  <defs>
    <style>
      .cls-1 {
        fill: #10100f;
      }
    </style>
  </defs>
  <path class="cls-1" d="m1072.31,388.77s1.92,63.84-35.99,152.26h-121.3c33.77-23.48,60.43-49.32,80.05-77.68-14.74-72.2-82.79-159.14-82.79-159.14l66.06-122.41s1.11,1.7,3.11,4.89c16.14,25.47,89.98,145.3,90.87,202.1ZM804.61,60.06L744.11,0l-59.64,60.06,59.64,60.5,60.5-60.5Zm-18.45,67.37l-62.21,96.94.07.07c1.78,1.78,25.7,30.6,34.14,79.76H122.26V8.22L0,95.75v367.59h802.46l39.03-134.71c0-.15.07-.3.07-.44,5.48-22.66,5.63-46.36,1.33-69.24-14.22-75.76-56.73-131.52-56.73-131.52Zm352.28,389.6c0,.89.52,1.41,1.7,1.7,1.7,0,2.81-.3,3.41-.81l118.86-93.98V0l-123.97,99.16v417.88Zm420.04-358.72c-36.36-33.47-70.5-50.21-102.57-50.21-7.7,0-12.89,1.85-15.4,5.63-2.59,3.7-19.55,49.91-24.73,126.19,35.1,2.15,84.35,24.29,115.67,56.13l-146.85-.3c-8.44-.04-13.4-4.59-17.48-10.37-2.74-4-6-11.77-3.48-24.07-39.47,53.59-34.73,128.19-34.73,128.19,1.63,25.47,9.48,78.2,45.91,78.2h206.83l24.44-59.69c15.7-37.77,23.62-70.35,23.62-97.83,0-57.76-23.77-108.42-71.24-151.89Z"/>
</svg>