<?xml version="1.0" encoding="UTF-8"?>
<svg id="Layer_1" data-name="Layer 1" xmlns="http://www.w3.org/2000/svg" viewBox="0 0 960.46 1106.72">
  <defs>
    <style>
      .cls-1 {
        fill: #a77075;
      }
    </style>
  </defs>
  <path class="cls-1" d="m960.44,491.96c-1.07,67.24-16.01,130.21-47.76,188.91-2.13,4.54-4.54,9.07-7.2,13.34-28.02,47.49-56.57,94.99-82.72,143.55-42.69,79.25-108.33,131.28-189.71,165.96-66.44,28.28-136.35,44.03-207.06,57.63-102.19,19.21-205.72,28.28-309.25,35.49-34.96,2.67-69.91,6.14-104.6,9.61-4.27.27-8.54,1.07-10.94-2.67-2.4-4-.8-7.74,1.33-11.47,31.75-55.23,63.5-110.47,94.99-165.7,4.27-7.47,10.41-11.21,18.68-11.74,85.12-5.34,169.7-14.94,254.28-22.15,112.6-9.87,223.6-28.28,330.6-65.91,22.41-8,44.03-17.61,64.84-28.82.53,0,1.07-.53,1.6-.8,2.4-1.33,4.8-2.4,7.2-4,5.87-3.2,11.74-6.4,17.34-10.14,3.73-2.13,7.47-4.27,10.94-6.94,6.67-4,13.34-8.54,20.01-13.07,13.61-9.34,19.74-21.61,21.61-37.62,26.68-227.6-140.35-444.8-346.34-510.17-48.83-15.48-98.19-25.62-150.76-26.15-59.23.8-116.87,12.81-171.03,41.09-.27,0-.27.27-.53.27h-.27c-14.94,8-21.35,17.88-20.55,35.22,5.6,100.06,49.63,178.77,129.14,238.54,27.22,20.28,55.5,38.42,88.59,48.56,17.08,5.07,34.15,4.27,51.5,4,11.21-.27,13.34,3.2,7.47,13.07-31.49,55.23-63.5,110.47-95.26,165.7-2.94,5.34-7.2,8.54-13.61,9.61-30.42,5.34-58.97.27-85.92-13.34-120.34-60.3-189.45-155.83-195.58-292.44-1.87-45.63,8.8-88.85,32.55-127.81.8-1.07,1.33-2.4,2.14-3.47.53-.8,1.07-1.6,1.6-2.4,27.75-46.16,53.1-93.92,79.25-141.15,21.08-37.89,45.63-73.64,80.85-99.79C285.37,29.02,340.07,9.81,398.77,3.14c122.21-13.34,234.54,16.01,335.13,85.12,95.26,65.91,165.17,152.89,201.72,264.16,14.68,45.09,25.35,91.52,24.82,139.55Z"/>
</svg>