<?xml version="1.0" encoding="UTF-8"?>
<svg id="Layer_1" data-name="Layer 1" xmlns="http://www.w3.org/2000/svg" viewBox="0 0 1024.59 1024.46">
  <defs>
    <style>
      .cls-1 {
        fill: #a77075;
      }
    </style>
  </defs>
  <path class="cls-1" d="m732.05,509.08v-5.84c-.7.64-1.4,1.28-2.11,1.93.7,1.3,1.4,2.61,2.11,3.91Z"/>
  <path class="cls-1" d="m126.77,943.98c-30.38-.02-46.7-15.64-46.7-44.86-.04-258.15-.04-516.28,0-774.41.02-28.5,16.26-44.66,44.74-44.66,187.44-.04,374.86-.02,562.3.02,4.31,0,8.74.04,12.92.94,20.29,4.37,31.99,20.7,32.01,44.6.04,124.05.02,248.12.02,372.19v5.43c25.79-23.7,51.64-47.35,77.21-71.29,1.99-1.89,2.67-6,2.67-9.06.14-100.71.42-201.44-.06-302.15-.2-40.53-17.19-73.32-49.75-97.86-16.62-12.53-35.96-18.19-55.75-22.88H105.92c-1.18.54-2.33,1.32-3.59,1.56C40.72,12.79.18,60.18.12,122.51-.08,381.98.04,641.45.04,900.93c.02,18.23,2.95,35.96,11.01,52.38,23.14,47.19,61.6,70.41,113.78,70.57,97.04.3,194.1.1,291.14.08,2.97,0,5.94-.26,9.65-.44,5.94-26.31,11.83-52.34,17.97-79.51h-13.64c-101.05,0-202.12.04-303.17-.02Z"/>
  <path class="cls-1" d="m1017.25,663.97c-51.72-51.56-103.42-103.14-154.99-154.83-2.55-2.55-3.95-6.24-5.98-9.59-4.15,3.71-5.7,4.91-7.04,6.3-87.65,90.12-175.33,180.2-262.94,270.36-18.21,18.73-31.62,40.35-37.52,66.06-13.27,58.1-26.41,116.23-39.55,174.35-.54,2.37-.48,4.83-.76,7.84,55.43-12.39,109.47-25.65,164.02-36.3,39.04-7.64,69.89-26.49,97.14-54.93,81.44-84.99,163.92-168.97,246.06-253.3,2.69-2.75,5.92-4.97,8.9-7.44v-2.01c-2.45-2.17-5.03-4.21-7.34-6.52Zm-321.76,230.29c-19.23-19.11-37.6-37.38-57.17-56.83,71.45-73.46,143.56-147.61,215.13-221.21,19.15,19.19,37.66,37.74,56.95,57.07-71.09,73.12-143.26,147.31-214.91,220.97Z"/>
  <path class="cls-1" d="m189.72,792.21c26.65,25.04,53.14,49.9,79.95,75.08,42.26-47.94,84.19-95.49,126.23-143.18,14.46-16.41,12.87-41.49-3.54-55.94-.2-.18-.41-.36-.61-.54-16.39-14.44-41.39-12.79-55.85,3.59-23.99,27.18-47.67,53.99-71.62,81.13-6.8-6.33-13.47-12.53-20.07-18.67-15.96-14.84-40.87-13.92-55.79,1.97-.18.19-.36.39-.54.58-14.95,15.94-14.09,41.02,1.84,55.98Z"/>
  <path class="cls-1" d="m189.73,552.23c26.67,25.04,53.14,49.9,79.94,75.06,42.24-47.91,84.06-95.34,126.19-143.11,14.45-16.39,12.95-41.47-3.43-55.93-.21-.18-.42-.37-.62-.55-16.38-14.46-41.44-12.84-55.91,3.54-23.91,27.08-47.67,53.99-71.68,81.2-6.74-6.31-13.36-12.51-19.93-18.66-15.94-14.92-40.93-14.04-55.88,1.88-.18.19-.36.39-.54.58-14.96,15.94-14.08,41.02,1.86,55.98Z"/>
  <path class="cls-1" d="m189.68,310.23c26.57,24.95,52.99,49.76,79.97,75.1,42.34-48.02,84.17-95.45,126.23-143.14,14.47-16.41,12.92-41.49-3.49-55.94-.2-.18-.4-.35-.6-.53-16.39-14.43-41.45-12.78-55.9,3.59-23.96,27.15-47.73,54.06-71.67,81.18-6.74-6.31-13.34-12.5-19.91-18.65-15.95-14.93-40.93-14.08-55.88,1.85-.18.19-.36.39-.55.58-14.95,15.93-14.13,40.99,1.8,55.95Z"/>
  <path class="cls-1" d="m480.45,244.63c-21.86,0-39.58,17.72-39.58,39.58h0c0,21.86,17.72,39.58,39.58,39.58h131.41c21.86,0,39.58-17.72,39.58-39.58h0c0-21.86-17.72-39.58-39.58-39.58h-131.41Z"/>
  <path class="cls-1" d="m651.86,524.07h0c0-21.67-17.57-39.23-39.23-39.23h-132.65c-21.67,0-39.23,17.57-39.23,39.23h0c0,21.67,17.57,39.23,39.23,39.23h132.65c21.67,0,39.23-17.57,39.23-39.23Z"/>
</svg>