<?xml version="1.0" encoding="UTF-8"?>
<svg id="Layer_1" data-name="Layer 1" xmlns="http://www.w3.org/2000/svg" viewBox="0 0 683.87 683.87">
  <defs>
    <style>
      .cls-1 {
        fill: #a77075;
      }
    </style>
  </defs>
  <path class="cls-1" d="m344.73,166.48c-99.16-2.18-178.63,78.74-178.63,175.71s78.01,174.25,174.25,175.71c97.7.73,176.44-78.01,177.17-174.25.73-98.43-78.01-175.71-172.79-177.17Zm-3.64,289.45c-62.7-.73-113.01-51.77-113.01-113.74-.73-62.7,51.76-115.2,115.92-114.47,61.25,1.46,112.28,51.77,111.55,115.2,0,61.97-51.04,113.01-114.47,113.01Z"/>
  <path class="cls-1" d="m524.14,118.27c-22.99.38-41.18,18.94-40.89,41.74.28,22.33,19.12,40.89,41.17,40.52,23.46-.38,41.46-18.75,41.18-42.12-.28-22.05-19.32-40.51-41.46-40.14Z"/>
  <path class="cls-1" d="m683.49,255.06c-.38-14.79-.57-29.59-1.22-44.38-.38-10.65-1.04-21.29-2.07-31.85-3.11-30.71-11.03-59.92-26.66-86.87-10.27-17.8-23.93-32.97-39.67-46.16-22.33-18.85-48.43-30.06-76.7-36.84-13.47-3.2-27.13-5.18-40.98-6.03-12.62-.85-25.25-1.42-37.97-1.89-11.12-.47-22.23-.57-33.35-.75-.38,0-.85-.19-1.32-.28h-163.19c-2.64.1-5.28.28-7.92.38-18,.57-35.9,1.13-53.89,1.79-16.87.66-33.73,2.64-50.22,6.41-26.86,6.22-51.82,16.39-73.68,33.45-28.45,22.14-48.52,50.22-59.92,84.51-5.09,15.36-8.77,31-10.36,47.02-1.23,11.31-1.98,22.71-2.64,34.1-.57,10.08-.75,20.17-1.04,30.25-.28,7.07-.28,14.04-.38,21.11-.09.47-.19.85-.28,1.32v163.2c.09,2.92.28,5.94.37,8.86.38,13.95.57,27.99,1.23,41.93.47,11.31,1.13,22.61,2.45,33.92,3.4,30.53,11.4,59.74,27.8,86.02,21.67,35.05,52.01,59.64,90.92,73.59,15.64,5.56,31.66,9.51,48.24,11.31,12.53,1.41,25.06,2.26,37.59,3.01,10.36.57,20.73,1.04,31,1.04,49.56.28,99.03.47,148.59.66,8.29,0,16.59,0,24.97-.09,9.7-.09,19.5-.09,29.21-.38,14.6-.47,29.3-.94,43.81-1.7,24.12-1.22,47.86-4.71,70.85-12.44,20.83-7.16,40.05-17.15,57-31.28,25.73-21.48,44.1-47.96,54.84-79.81,5.18-15.64,8.95-31.56,10.65-48.06,1.22-11.59,1.98-23.27,2.63-34.95.57-10.36.76-20.63,1.04-31,.28-7.63.28-15.36.37-22.99.1-.57.19-1.04.28-1.6v-155.28c-.1-3.11-.28-6.12-.38-9.23Zm-61.54,162.36c-.1,12.06-.28,24.21-.66,36.37-.47,11.87-.94,23.75-1.7,35.61-1.42,20.73-4.99,41.08-13.66,60.12-12.91,28.08-33.92,47.77-62.75,58.98-13,5.09-26.38,8.29-40.24,9.71-12.34,1.13-24.78,1.98-37.12,2.45-15.07.66-30.24,1.04-45.32,1.13-47.77.19-95.45.28-143.22.28-11.49,0-23.08-.1-34.58-.47-14.51-.38-29.02-.94-43.44-1.7-17.15-.94-34.11-3.2-50.51-8.48-16.3-5.28-31.19-13.1-44-24.88-15.07-13.95-25.53-30.62-31.84-50.03-3.87-11.87-6.5-23.84-7.54-36.18-1.04-11.3-1.79-22.52-2.26-33.82-.57-14.04-.94-28.17-1.04-42.21-.19-46.36-.19-92.62-.28-138.98,0-6.13,0-12.34.1-18.56.19-12.63.37-25.25.75-37.97.37-11.59.85-23.27,1.7-34.87,1.51-22.14,5.46-43.81,15.64-63.79,13.47-26.66,34.39-45.13,62.56-55.5,12.25-4.52,24.88-7.63,37.78-8.86,12.06-1.22,24.22-2.07,36.28-2.54,14.23-.66,28.46-1.04,42.59-1.13,27.6-.19,55.12-.09,82.73-.09v-.28c23.27,0,46.55-.09,69.82.09,14.41.09,28.83.38,43.25.85,11.68.28,23.37.85,34.96,1.6,20.92,1.5,41.36,5.18,60.49,14.13,27.04,12.62,46.17,32.79,57.38,60.4,5.18,12.72,8.48,25.82,9.99,39.39,1.13,10.55,1.98,21.2,2.55,31.84.66,10.27.85,20.54,1.13,30.81.19,6.59.37,13.19.37,19.78.1,40.52.19,81.03.28,121.55,0,11.78,0,23.46-.19,35.24Z"/>
</svg>