<?xml version="1.0" encoding="UTF-8"?>
<svg id="Layer_1" data-name="Layer 1" xmlns="http://www.w3.org/2000/svg" viewBox="0 0 1014.43 1013.17">
  <defs>
    <style>
      .cls-1 {
        fill: #a77075;
      }
    </style>
  </defs>
  <g id="iUT19T.tif">
    <g>
      <path class="cls-1" d="m873.8,155.63C794.65,69.51,695.31,20.32,580.34,4.64,335.99-28.73,90.64,120.76,23.51,362.97-13.16,495.28,1.21,622.68,66.69,743.8c3.53,6.54,4.36,12.21,2.34,19.47-22.01,78.95-43.64,158.01-65.46,237.02-.83,3.07-2.36,5.95-3.57,8.92,1.31,1.31,2.64,2.64,3.94,3.97,25.62-7.06,51.17-14.39,76.86-21.13,59.56-15.62,119.13-31.11,178.83-46.19,4.78-1.21,11.18-.44,15.56,1.84,281.39,146.31,631.87-1.51,717.95-306.72,51.35-182.12,9.08-345.58-119.35-485.33Zm-274.27,752.64c-110.55,23.77-214.04,5.69-310.75-52.3-6.15-3.67-11.4-4.64-18.34-2.8-46.13,12.29-92.37,24.17-138.56,36.14-2.78.71-5.63,1.13-9.93,2,4.6-16.99,8.78-32.75,13.12-48.49,8.86-32.04,17.64-64.12,26.8-96.08,1.8-6.25.83-10.98-2.72-16.42-46.53-71.09-70.58-149.05-69.51-234.22,2.38-188.15,133.15-353.99,315.35-400.44,233.77-59.62,470.42,89.95,516.56,326.41,43.14,221.2-100.93,438.64-322.03,486.19Z"/>
      <path class="cls-1" d="m765.01,634.02c-.75,67.55-53.61,97.26-103.03,105.85-6.78,1.17-13.8.97-20.7,1.41-.04.24-.08.5-.12.73-12.07-1.51-24.6-1.45-36.14-4.82-64.87-18.89-126.94-43.78-179.88-87.43-41.22-34-75.68-74.21-108.74-115.84-21.63-27.24-40.29-56.23-52.66-88.86-23.06-60.73-10.59-114.37,32.99-161.56,8.17-8.86,18.42-14.04,30.43-14.53,11.5-.48,23.08-.38,34.56.28,9.87.56,14.75,8.09,18.3,16.08,6.44,14.43,12.41,29.06,18.54,43.62,7.77,18.52,15.25,37.15,23.39,55.49,4,9,4.04,17.41-1.61,25.24-9.4,13.07-18.99,26.03-29.1,38.54-10.84,13.42-11.44,16.97-2.64,31.56,40.27,66.75,95.76,115.82,168.36,145.1,15.17,6.13,20.64,5.13,30.97-7.36,11.97-14.47,23.83-29.04,35.45-43.8,8.27-10.53,12.91-12.93,25.42-8.37,13.86,5.06,27.24,11.5,40.82,17.39,20.02,8.64,40.13,17.13,60.01,26.07,14.27,6.44,15.56,9.87,15.38,25.2Z"/>
    </g>
  </g>
</svg>