<?xml version="1.0" encoding="UTF-8"?>
<svg id="Layer_1" data-name="Layer 1" xmlns="http://www.w3.org/2000/svg" viewBox="0 0 988.06 694.36">
  <defs>
    <style>
      .cls-1 {
        fill: #a77075;
      }
    </style>
  </defs>
  <g id="uHcsEy.tif">
    <path class="cls-1" d="m978.56,48.16c-15.56-30.2-40.87-46.02-74.79-48.05-3.21-.19-6.44-.08-9.65-.08C626.59.03,359.04.02,91.48.03,47.65.05,13.43,24.9,3.16,64.75.95,73.33.14,82.5.14,91.41-.03,262.07-.01,432.74.03,603.39c0,46.52,26.37,79.26,71.75,89.48,1.22.27,2.32.99,3.48,1.49h837.55c5.2-1.45,10.54-2.57,15.62-4.41,30.32-11.04,49.56-32.17,57.54-63.48.62-2.47,1.39-4.89,2.09-7.33V75.25c-3.09-9.07-5.14-18.68-9.49-27.09Zm-91.69,10.23c-2.98,3.23-4.99,5.55-7.15,7.73-118.97,119.28-238.21,238.25-356.6,358.09-17.65,17.87-41.11,17.23-57.77.35-118.62-120.05-238.09-239.27-357.28-358.77-2.01-2.01-3.93-4.12-7.06-7.41h785.86ZM58.46,592.51V101.68c82.14,81.32,164.89,163.27,247.86,245.42-83.03,82.19-165.8,164.16-247.86,245.4Zm43.5,43.23c82.79-82,165.1-163.54,247.7-245.33,24.19,24.11,49.75,49.4,75.12,74.92,41.69,41.94,96.7,42.07,138.21.37,25.39-25.52,51.01-50.81,76.08-75.77,82.66,81.85,164.85,163.23,248.27,245.81H101.96Zm827.51-42.96c-81.98-81.21-164.68-163.11-248.42-246.04,83.33-82.52,165.92-164.31,248.42-246.02v492.06Z"/>
  </g>
</svg>