<?xml version="1.0" encoding="UTF-8"?>
<svg id="Layer_1" data-name="Layer 1" xmlns="http://www.w3.org/2000/svg" viewBox="0 0 837.43 836.4">
  <defs>
    <style>
      .cls-1 {
        fill: #a77075;
      }
    </style>
  </defs>
  <g id="iUT19T.tif">
    <g>
      <path class="cls-1" d="m721.34,128.48C656.01,57.38,573.99,16.77,479.08,3.83,277.36-23.72,74.83,99.69,19.41,299.64-10.87,408.87,1,514.04,55.06,614.02c2.91,5.4,3.6,10.08,1.93,16.07-18.17,65.17-36.02,130.44-54.04,195.66-.69,2.54-1.95,4.91-2.95,7.36,1.08,1.08,2.18,2.18,3.26,3.27,21.15-5.83,42.24-11.88,63.45-17.45,49.17-12.9,98.35-25.68,147.63-38.13,3.94-1,9.23-.36,12.85,1.52,232.29,120.79,521.62-1.24,592.68-253.21,42.39-150.34,7.5-285.29-98.53-400.65Zm-226.42,621.32c-91.26,19.62-176.69,4.7-256.53-43.18-5.07-3.03-9.41-3.83-15.14-2.31-38.09,10.15-76.25,19.95-114.39,29.84-2.29.59-4.65.93-8.2,1.65,3.8-14.03,7.25-27.04,10.83-40.03,7.32-26.45,14.57-52.93,22.13-79.31,1.49-5.16.69-9.07-2.24-13.55-38.41-58.69-58.26-123.04-57.38-193.35,1.96-155.32,109.92-292.23,260.33-330.57,192.98-49.21,388.35,74.26,426.43,269.46,35.61,182.6-83.32,362.11-265.84,401.36Z"/>
      <path class="cls-1" d="m631.54,523.4c-.62,55.76-44.26,80.29-85.06,87.38-5.6.97-11.39.8-17.09,1.16-.03.2-.07.41-.1.61-9.97-1.24-20.31-1.19-29.84-3.98-53.55-15.6-104.8-36.14-148.49-72.18-34.03-28.07-62.47-61.26-89.77-95.63-17.86-22.49-33.26-46.42-43.47-73.36-19.03-50.13-8.74-94.42,27.23-133.37,6.74-7.32,15.2-11.59,25.12-12,9.49-.39,19.05-.31,28.53.23,8.15.46,12.18,6.68,15.11,13.27,5.32,11.91,10.25,23.99,15.3,36.01,6.42,15.29,12.59,30.67,19.31,45.81,3.31,7.43,3.34,14.37-1.33,20.83-7.76,10.79-15.68,21.49-24.03,31.82-8.95,11.08-9.44,14.01-2.18,26.06,33.24,55.11,79.05,95.61,138.99,119.79,12.52,5.06,17.04,4.24,25.56-6.07,9.89-11.95,19.67-23.98,29.26-36.15,6.82-8.69,10.65-10.67,20.98-6.91,11.44,4.17,22.49,9.49,33.7,14.35,16.53,7.14,33.13,14.14,49.54,21.52,11.78,5.32,12.85,8.15,12.7,20.8Z"/>
    </g>
  </g>
</svg>